<?xml version="1.0" encoding="UTF-8" standalone="no"?>
<!DOCTYPE svg PUBLIC "-//W3C//DTD SVG 1.1//EN" "http://www.w3.org/Graphics/SVG/1.1/DTD/svg11.dtd">
<svg width="100%" height="100%" viewBox="0 0 1885 424" version="1.1" xmlns="http://www.w3.org/2000/svg" xmlns:xlink="http://www.w3.org/1999/xlink" xml:space="preserve" xmlns:serif="http://www.serif.com/" style="fill-rule:evenodd;clip-rule:evenodd;stroke-linejoin:round;stroke-miterlimit:2;">
    <g id="Layer-1" serif:id="Layer 1" transform="matrix(4.16667,0,0,4.16667,0,0)">
        <g transform="matrix(1,0,0,1,51.3052,76.0199)">
            <path d="M0,-12.142C-0.002,1.064 -9.981,11.939 -22.81,13.352C-23.404,13.417 -23.854,13.917 -23.854,14.514L-23.854,25.656L-42.486,7.214C-47.891,2.51 -51.305,-4.418 -51.305,-12.145C-51.305,-26.314 -39.821,-37.798 -25.653,-37.798C-11.496,-37.798 0.002,-26.299 0,-12.142" style="fill:rgb(154,77,158);fill-rule:nonzero;"/>
        </g>
        <g transform="matrix(1,0,0,1,30.8773,62.0535)">
            <path d="M0,-12.745C0.002,1.116 10.476,12.53 23.942,14.014C24.565,14.082 25.037,14.607 25.037,15.234L25.037,26.929L44.594,7.571C50.268,2.634 53.851,-4.637 53.851,-12.748C53.851,-27.62 41.797,-39.674 26.926,-39.674C12.066,-39.674 -0.002,-27.605 0,-12.745" style="fill:rgb(127,13,111);fill-rule:nonzero;"/>
        </g>
        <g transform="matrix(1,0,0,1,52.6228,35.9303)">
            <path d="M0,-11.542C-0.002,1.011 -9.488,11.349 -21.683,12.692C-22.248,12.754 -22.675,13.23 -22.675,13.798L-22.675,24.389L-40.387,6.857C-45.525,2.386 -48.771,-4.199 -48.771,-11.545C-48.771,-25.014 -37.854,-35.93 -24.386,-35.931C-10.928,-35.931 0.002,-25 0,-11.542" style="fill:rgb(56,143,167);fill-rule:nonzero;"/>
        </g>
        <g transform="matrix(-0.74454,-0.667577,-0.667577,0.74454,26.0703,36.9716)">
            <path d="M-11.369,-27.095C-19.747,-17.746 -19.586,-3.716 -11.403,5.424C-11.391,5.438 -11.381,5.451 -11.369,5.466C-3.078,-4.252 -2.887,-18.289 -10.334,-28.18C-10.687,-27.831 -11.033,-27.47 -11.369,-27.095" style="fill:rgb(0,91,137);fill-rule:nonzero;"/>
        </g>
        <g transform="matrix(1,0,0,1,32.8275,59.2996)">
            <path d="M0,-20.059C-1.178,-17.147 -1.861,-13.982 -1.941,-10.669C-2.479,-10.586 -2.88,-10.121 -2.88,-9.572L-2.88,1.019L-20.591,-16.512C-20.763,-16.663 -20.936,-16.816 -21.102,-16.972C-17.093,-19.57 -12.312,-21.078 -7.177,-21.078C-4.687,-21.078 -2.277,-20.723 0,-20.059" style="fill:rgb(0,114,150);fill-rule:nonzero;"/>
        </g>
        <g transform="matrix(1,0,0,1,120.554,19.2083)">
            <path d="M0,28.035L-2.479,28.035C-3.239,28.035 -3.52,27.835 -3.879,26.955L-13.317,2.879C-13.678,1.999 -13.558,1.519 -12.638,1.32L-10.398,0.88C-9.559,0.72 -9.078,0.8 -8.719,1.8L-1.68,20.436L1.88,6.319C2.12,5.439 2.479,5.239 3.199,5.239L5.799,5.239C6.479,5.239 6.839,5.439 7.119,6.319L11.878,20.556L17.277,1.2C17.558,0.2 18.077,0 18.917,0.2L21.316,0.8C22.196,0.999 22.316,1.439 22.036,2.319L14.838,26.955C14.558,27.835 14.198,28.035 13.478,28.035L10.799,28.035C10.038,28.035 9.679,27.835 9.398,26.955L4.879,13.357L1.36,26.955C1.12,27.835 0.72,28.035 0,28.035" style="fill:rgb(107,13,95);fill-rule:nonzero;"/>
        </g>
        <g transform="matrix(1,0,0,1,157.994,37.2449)">
            <path d="M0,0.2C0,-3.84 -2.159,-5.639 -5.239,-5.639C-8.278,-5.639 -10.479,-3.879 -10.479,0.2C-10.479,4.119 -8.278,5.839 -5.239,5.839C-2.159,5.839 0,4.119 0,0.2M-14.877,0.2C-14.877,-5.799 -11.198,-10.238 -5.239,-10.238C0.76,-10.238 4.399,-5.799 4.399,0.2C4.399,6.039 0.76,10.438 -5.239,10.438C-11.198,10.438 -14.877,6.039 -14.877,0.2" style="fill:rgb(107,13,95);fill-rule:nonzero;"/>
        </g>
        <g transform="matrix(1,0,0,1,179.753,37.2449)">
            <path d="M0,0.2C0,-3.84 -2.159,-5.639 -5.239,-5.639C-8.278,-5.639 -10.479,-3.879 -10.479,0.2C-10.479,4.119 -8.278,5.839 -5.239,5.839C-2.159,5.839 0,4.119 0,0.2M-14.877,0.2C-14.877,-5.799 -11.198,-10.238 -5.239,-10.238C0.76,-10.238 4.399,-5.799 4.399,0.2C4.399,6.039 0.76,10.438 -5.239,10.438C-11.198,10.438 -14.877,6.039 -14.877,0.2" style="fill:rgb(107,13,95);fill-rule:nonzero;"/>
        </g>
        <g transform="matrix(1,0,0,1,200.673,29.1261)">
            <path d="M0,8.039L0,3.6C-1.439,2.84 -3.079,2.44 -4.799,2.44C-7.559,2.44 -9.639,4.24 -9.639,7.879C-9.639,11.358 -7.559,13.518 -4.879,13.518C-2.079,13.518 0,11.318 0,8.039M1.399,18.717C0.48,18.717 0,18.237 0,17.317L0,15.558C-1.439,17.237 -3.56,18.117 -5.799,18.117C-10.358,18.117 -14.037,14.078 -14.037,7.879C-14.037,1.76 -9.958,-2.12 -4.799,-2.12C-3.239,-2.12 -1.56,-1.799 0,-1.2L0,-9.278C0,-10.238 0.48,-10.678 1.399,-10.678L3,-10.678C3.959,-10.678 4.399,-10.238 4.399,-9.278L4.399,17.317C4.399,18.237 3.959,18.717 3,18.717L1.399,18.717Z" style="fill:rgb(107,13,95);fill-rule:nonzero;"/>
        </g>
        <g transform="matrix(1,0,0,1,213.035,39.0841)">
            <path d="M0,-3.479L8.758,-4.519C8.399,-6.438 6.838,-7.798 4.72,-7.798C2.24,-7.798 0.521,-6.358 0,-3.479M-4.519,-1.639C-4.519,-7.238 -1.159,-12.078 5.039,-12.078C9.799,-12.078 13.358,-8.718 13.358,-2.919C13.358,-1.719 13.239,-1.239 12.159,-1.119L0.16,0.28C0.84,2.6 2.84,4.28 6.119,4.28C7.879,4.28 9.799,3.52 11.079,2.84C11.559,2.56 11.958,2.8 12.159,3.32L12.918,5.24C13.118,5.839 13.198,6.16 12.717,6.56C11.079,7.799 8.239,8.599 5.759,8.599C-0.479,8.599 -4.519,4.44 -4.519,-1.639" style="fill:rgb(107,13,95);fill-rule:nonzero;"/>
        </g>
        <g transform="matrix(1,0,0,1,232.635,26.0474)">
            <path d="M0,21.796L-1.6,21.796C-2.52,21.796 -3,21.316 -3,20.396L-3,1.399C-3,0.44 -2.52,0 -1.6,0L0,0C0.961,0 1.4,0.44 1.4,1.399L1.4,4.319C2.959,2.119 5.439,0.959 7.799,0.959C11.639,0.959 14.438,3.319 14.438,8.838L14.438,19.796C14.438,20.716 13.998,21.196 13.039,21.196L11.438,21.196C10.52,21.196 10.039,20.716 10.039,19.796L10.039,10.438C10.039,7.118 8.6,5.559 6.279,5.559C3.561,5.559 1.4,7.598 1.4,11.038L1.4,20.396C1.4,21.316 0.961,21.796 0,21.796" style="fill:rgb(107,13,95);fill-rule:nonzero;"/>
        </g>
        <g transform="matrix(1,0,0,1,264.273,29.1261)">
            <path d="M0,8.039L0,3.6C-1.439,2.84 -3.08,2.44 -4.799,2.44C-7.559,2.44 -9.639,4.24 -9.639,7.879C-9.639,11.358 -7.559,13.518 -4.879,13.518C-2.08,13.518 0,11.318 0,8.039M1.398,18.717C0.48,18.717 0,18.237 0,17.317L0,15.558C-1.439,17.237 -3.561,18.117 -5.799,18.117C-10.359,18.117 -14.037,14.078 -14.037,7.879C-14.037,1.76 -9.959,-2.12 -4.799,-2.12C-3.24,-2.12 -1.561,-1.799 0,-1.2L0,-9.278C0,-10.238 0.48,-10.678 1.398,-10.678L3,-10.678C3.959,-10.678 4.398,-10.238 4.398,-9.278L4.398,17.317C4.398,18.237 3.959,18.717 3,18.717L1.398,18.717Z" style="fill:rgb(107,13,95);fill-rule:nonzero;"/>
        </g>
        <g transform="matrix(1,0,0,1,285.873,43.0841)">
            <path d="M0,-17.877L0,-7.239L2.439,-7.479C6.719,-7.879 9.439,-9.599 9.439,-12.798C9.439,-16.237 6.799,-17.877 2.52,-17.877L0,-17.877ZM-3.199,4.759C-4.119,4.759 -4.598,4.279 -4.598,3.359L-4.598,-21.236C-4.598,-22.196 -4.119,-22.636 -3.199,-22.636L2.361,-22.636C9.479,-22.636 13.998,-19.517 13.998,-12.798C13.998,-6.239 9.199,-3.439 2.281,-2.68L0,-2.44L0,3.359C0,4.279 -0.479,4.759 -1.398,4.759L-3.199,4.759Z" style="fill:rgb(107,13,95);fill-rule:nonzero;"/>
        </g>
        <g transform="matrix(1,0,0,1,314.711,33.9654)">
            <path d="M0,6.919C0.041,6.599 0.08,6.319 0.08,5.999L0.08,5.639C-1.439,5.039 -3.199,4.719 -4.678,4.719C-6.918,4.719 -8.037,5.559 -8.037,6.999C-8.037,8.599 -6.479,9.519 -4.678,9.519C-2.439,9.519 -0.279,8.398 0,6.919M1.08,14.278C0.441,14.278 0.08,13.918 0.08,13.278L0.08,11.558C-1.199,12.838 -3.158,13.638 -5.158,13.718L-5.879,13.718C-9.797,13.518 -12.438,10.758 -12.438,7.159C-12.438,3.759 -10.357,0.84 -5.078,0.84C-3.398,0.84 -1.52,1.2 0.08,1.88C0.08,1.68 0.041,1.52 0.041,1.32C-0.199,-1.44 -1.92,-2.879 -4.678,-2.879C-6.199,-2.879 -7.918,-2.319 -9.479,-1.36C-9.957,-1.08 -10.318,-1.28 -10.598,-1.84L-10.918,-2.399L-11.477,-3.599C-11.598,-3.799 -11.678,-3.999 -11.758,-4.199C-11.877,-4.559 -11.797,-4.919 -11.438,-5.159C-9.678,-6.479 -6.959,-7.359 -4.039,-7.359C1.201,-7.359 4.48,-4.159 4.48,1.56L4.48,12.918C4.48,13.198 4.439,13.398 4.4,13.598C4.32,14.038 4,14.278 3.48,14.278L1.08,14.278Z" style="fill:rgb(107,13,95);fill-rule:nonzero;"/>
        </g>
        <g transform="matrix(1,0,0,1,326.832,39.0841)">
            <path d="M0,-3.479L8.76,-4.519C8.398,-6.438 6.84,-7.798 4.721,-7.798C2.24,-7.798 0.521,-6.358 0,-3.479M-4.518,-1.639C-4.518,-7.238 -1.158,-12.078 5.039,-12.078C9.799,-12.078 13.359,-8.718 13.359,-2.919C13.359,-1.719 13.238,-1.239 12.158,-1.119L0.16,0.28C0.84,2.6 2.84,4.28 6.119,4.28C7.879,4.28 9.799,3.52 11.078,2.84C11.559,2.56 11.959,2.8 12.158,3.32L12.918,5.24C13.119,5.839 13.199,6.16 12.719,6.56C11.078,7.799 8.24,8.599 5.76,8.599C-0.479,8.599 -4.518,4.44 -4.518,-1.639" style="fill:rgb(107,13,95);fill-rule:nonzero;"/>
        </g>
        <g transform="matrix(1,0,0,1,356.51,29.1261)">
            <path d="M0,8.039L0,3.6C-1.439,2.84 -3.078,2.44 -4.799,2.44C-7.559,2.44 -9.639,4.24 -9.639,7.879C-9.639,11.358 -7.559,13.518 -4.879,13.518C-2.078,13.518 0,11.318 0,8.039M1.4,18.717C0.48,18.717 0,18.237 0,17.317L0,15.558C-1.439,17.237 -3.559,18.117 -5.799,18.117C-10.357,18.117 -14.037,14.078 -14.037,7.879C-14.037,1.76 -9.957,-2.12 -4.799,-2.12C-3.238,-2.12 -1.559,-1.799 0,-1.2L0,-9.278C0,-10.238 0.48,-10.678 1.4,-10.678L3,-10.678C3.959,-10.678 4.4,-10.238 4.4,-9.278L4.4,17.317C4.4,18.237 3.959,18.717 3,18.717L1.4,18.717Z" style="fill:rgb(107,13,95);fill-rule:nonzero;"/>
        </g>
        <g transform="matrix(1,0,0,1,368.313,18.4483)">
            <path d="M0,28.795L-1.6,28.795C-2.559,28.795 -3,28.315 -3,27.395L-3,10.998C-3,10.038 -2.559,9.598 -1.6,9.598L0,9.598C0.92,9.598 1.4,10.038 1.4,10.998L1.4,27.395C1.4,28.315 0.92,28.795 0,28.795M-3.799,2.999C-3.799,1.319 -2.479,0 -0.799,0C0.84,0 2.199,1.319 2.199,2.999C2.199,4.679 0.881,6.039 -0.799,6.039C-2.479,6.039 -3.799,4.679 -3.799,2.999" style="fill:rgb(107,13,95);fill-rule:nonzero;"/>
        </g>
        <g transform="matrix(1,0,0,1,385.432,33.9654)">
            <path d="M0,6.919C0.039,6.599 0.08,6.319 0.08,5.999L0.08,5.639C-1.439,5.039 -3.199,4.719 -4.68,4.719C-6.92,4.719 -8.039,5.559 -8.039,6.999C-8.039,8.599 -6.479,9.519 -4.68,9.519C-2.439,9.519 -0.281,8.398 0,6.919M1.08,14.278C0.439,14.278 0.08,13.918 0.08,13.278L0.08,11.558C-1.199,12.838 -3.16,13.638 -5.16,13.718L-5.879,13.718C-9.799,13.518 -12.438,10.758 -12.438,7.159C-12.438,3.759 -10.359,0.84 -5.08,0.84C-3.4,0.84 -1.52,1.2 0.08,1.88C0.08,1.68 0.039,1.52 0.039,1.32C-0.201,-1.44 -1.92,-2.879 -4.68,-2.879C-6.199,-2.879 -7.92,-2.319 -9.479,-1.36C-9.959,-1.08 -10.318,-1.28 -10.598,-1.84L-10.918,-2.399L-11.479,-3.599C-11.598,-3.799 -11.678,-3.999 -11.758,-4.199C-11.879,-4.559 -11.799,-4.919 -11.438,-5.159C-9.68,-6.479 -6.959,-7.359 -4.039,-7.359C1.199,-7.359 4.479,-4.159 4.479,1.56L4.479,12.918C4.479,13.198 4.439,13.398 4.398,13.598C4.318,14.038 3.998,14.278 3.479,14.278L1.08,14.278Z" style="fill:rgb(107,13,95);fill-rule:nonzero;"/>
        </g>
        <g transform="matrix(1,0,0,1,403.031,23.0471)">
            <path d="M0,25.036C-4.16,25.036 -6.6,22.557 -6.6,17.277L-6.6,10.358L-9.398,10.239C-10.119,10.199 -10.318,9.839 -10.318,9.199L-10.318,6.799C-10.318,6.159 -9.84,5.599 -9.158,5.64L-6.6,5.719L-6.6,1C-6.6,0.32 -6.279,0 -5.6,0L-3.199,0C-2.561,0 -2.201,0.32 -2.201,1L-2.201,5.959L3.758,6.239C4.479,6.239 4.678,6.639 4.678,7.279L4.678,9.679C4.678,10.319 4.199,10.838 3.52,10.838L-2.201,10.558L-2.201,16.317C-2.201,19.477 -1.24,20.477 0.68,20.477C1.76,20.477 3.119,19.917 3.879,19.477C4.318,19.237 4.758,19.397 4.998,19.957L5.918,22.036C6.158,22.557 6.199,22.996 5.719,23.316C4.279,24.356 2.078,25.036 0,25.036" style="fill:rgb(107,13,95);fill-rule:nonzero;"/>
        </g>
        <g transform="matrix(1,0,0,1,415.152,25.6475)">
            <path d="M0,21.796L-1.6,21.796C-2.52,21.796 -3,21.316 -3,20.396L-3,1.399C-3,0.44 -2.52,0 -1.6,0L0,0C0.959,0 1.398,0.44 1.398,1.399L1.398,4.318C2.68,2.439 4.6,1.359 6.639,1.359C7.518,1.359 8.479,1.559 8.998,1.879C9.277,2.039 9.357,2.279 9.318,2.599L8.918,6.118C8.838,6.678 8.518,6.798 7.998,6.678C6.879,6.439 6.119,6.358 5.479,6.358C3.158,6.358 1.398,8.198 1.398,11.237L1.398,20.396C1.398,21.316 0.959,21.796 0,21.796" style="fill:rgb(107,13,95);fill-rule:nonzero;"/>
        </g>
        <g transform="matrix(1,0,0,1,430.471,18.4483)">
            <path d="M0,28.795L-1.6,28.795C-2.559,28.795 -3,28.315 -3,27.395L-3,10.998C-3,10.038 -2.559,9.598 -1.6,9.598L0,9.598C0.92,9.598 1.4,10.038 1.4,10.998L1.4,27.395C1.4,28.315 0.92,28.795 0,28.795M-3.799,2.999C-3.799,1.319 -2.479,0 -0.799,0C0.84,0 2.199,1.319 2.199,2.999C2.199,4.679 0.881,6.039 -0.799,6.039C-2.479,6.039 -3.799,4.679 -3.799,2.999" style="fill:rgb(107,13,95);fill-rule:nonzero;"/>
        </g>
        <g transform="matrix(1,0,0,1,444.869,32.0451)">
            <path d="M0,11.039C1.84,11.039 3.961,10.359 5.24,9.639C5.721,9.399 6.119,9.599 6.359,10.159L7.24,12.279C7.48,12.799 7.52,13.199 7.039,13.599C5.4,14.838 2.48,15.638 -0.039,15.638C-5.799,15.638 -9.598,11.719 -9.598,5.64C-9.598,-0.559 -5.799,-4.599 -0.039,-4.599C2.4,-4.599 5.24,-3.798 6.84,-2.559C7.32,-2.199 7.279,-1.799 7.039,-1.279L6.16,0.881C5.92,1.4 5.52,1.641 5.039,1.36C3.801,0.681 1.76,0.001 0,0.001C-3.238,0.001 -5.199,1.84 -5.199,5.64C-5.199,9.279 -3.238,11.039 0,11.039" style="fill:rgb(107,13,95);fill-rule:nonzero;"/>
        </g>
        <g transform="matrix(1,0,0,1,114.625,61.7051)">
            <path d="M0,19.461C-1.419,19.461 -2.669,19.215 -3.752,18.722C-4.835,18.23 -5.675,17.535 -6.271,16.639C-6.869,15.743 -7.168,14.694 -7.168,13.493L-4.228,13.493C-4.228,14.175 -4.06,14.797 -3.724,15.361C-3.388,15.926 -2.907,16.374 -2.281,16.706C-1.656,17.037 -0.896,17.203 0,17.203C0.784,17.203 1.461,17.078 2.03,16.827C2.6,16.576 3.033,16.232 3.332,15.792C3.631,15.353 3.78,14.847 3.78,14.274C3.78,13.61 3.626,13.068 3.318,12.647C3.011,12.226 2.595,11.877 2.072,11.599C1.55,11.321 0.934,11.07 0.225,10.846C-0.485,10.622 -1.223,10.394 -1.987,10.16C-3.537,9.659 -4.689,9.023 -5.445,8.252C-6.202,7.481 -6.58,6.478 -6.58,5.241C-6.58,4.184 -6.323,3.266 -5.81,2.486C-5.297,1.707 -4.563,1.098 -3.611,0.658C-2.66,0.219 -1.55,0 -0.279,0C1.008,0 2.123,0.224 3.066,0.671C4.009,1.12 4.751,1.738 5.292,2.526C5.833,3.315 6.113,4.238 6.132,5.295L3.164,5.295C3.164,4.811 3.033,4.336 2.772,3.87C2.511,3.405 2.118,3.023 1.597,2.728C1.073,2.432 0.43,2.285 -0.336,2.285C-0.971,2.267 -1.54,2.365 -2.044,2.58C-2.548,2.795 -2.944,3.109 -3.233,3.521C-3.523,3.933 -3.668,4.426 -3.668,5C-3.668,5.573 -3.537,6.034 -3.275,6.384C-3.015,6.733 -2.646,7.033 -2.17,7.284C-1.693,7.535 -1.129,7.764 -0.476,7.97C0.178,8.176 0.896,8.404 1.681,8.655C2.632,8.96 3.49,9.332 4.256,9.771C5.021,10.21 5.623,10.774 6.062,11.464C6.501,12.154 6.721,13.037 6.721,14.112C6.721,15.044 6.469,15.913 5.964,16.719C5.46,17.525 4.714,18.185 3.725,18.695C2.734,19.206 1.493,19.461 0,19.461" style="fill:rgb(41,132,159);fill-rule:nonzero;"/>
        </g>
        <g transform="matrix(1,0,0,1,128.176,71.785)">
            <path d="M0,-0.699L3.78,-0.699C5.236,-0.699 6.281,-1.012 6.916,-1.639C7.551,-2.266 7.868,-3.1 7.868,-4.14C7.868,-5.215 7.551,-6.048 6.916,-6.639C6.281,-7.231 5.236,-7.527 3.78,-7.527L0,-7.527L0,-0.699ZM-2.8,9.059L-2.8,-9.758L3.893,-9.758C5.441,-9.758 6.725,-9.507 7.742,-9.005C8.76,-8.503 9.511,-7.831 9.996,-6.989C10.481,-6.147 10.725,-5.188 10.725,-4.113C10.725,-3.092 10.486,-2.155 10.01,-1.303C9.534,-0.452 8.792,0.233 7.784,0.752C6.776,1.273 5.479,1.532 3.893,1.532L0,1.532L0,9.059L-2.8,9.059Z" style="fill:rgb(41,132,159);fill-rule:nonzero;"/>
        </g>
        <g transform="matrix(1,0,0,1,142.625,62.0279)">
            <path d="M0,18.816L0,0L12.376,0L12.376,2.204L2.8,2.204L2.8,8.225L11.536,8.225L11.536,10.376L2.8,10.376L2.8,16.612L12.376,16.612L12.376,18.816L0,18.816Z" style="fill:rgb(41,132,159);fill-rule:nonzero;"/>
        </g>
        <g transform="matrix(1,0,0,1,159.312,62.0279)">
            <path d="M0,18.816L0,0L12.376,0L12.376,2.204L2.8,2.204L2.8,8.225L11.536,8.225L11.536,10.376L2.8,10.376L2.8,16.612L12.376,16.612L12.376,18.816L0,18.816Z" style="fill:rgb(41,132,159);fill-rule:nonzero;"/>
        </g>
        <g transform="matrix(1,0,0,1,184.596,61.7051)">
            <path d="M0,19.461C-1.903,19.461 -3.556,19.054 -4.956,18.238C-6.355,17.423 -7.43,16.285 -8.176,14.824C-8.923,13.364 -9.296,11.666 -9.296,9.731C-9.296,7.814 -8.923,6.12 -8.176,4.65C-7.43,3.181 -6.355,2.038 -4.956,1.223C-3.556,0.407 -1.903,0 0,0C2.277,0 4.14,0.528 5.586,1.585C7.033,2.643 7.942,4.13 8.316,6.048L5.208,6.048C4.929,4.937 4.358,4.05 3.5,3.387C2.642,2.724 1.466,2.392 -0.027,2.392C-1.354,2.392 -2.491,2.688 -3.443,3.279C-4.396,3.87 -5.133,4.713 -5.655,5.806C-6.179,6.899 -6.439,8.207 -6.439,9.731C-6.439,11.254 -6.179,12.566 -5.655,13.668C-5.133,14.771 -4.396,15.613 -3.443,16.195C-2.491,16.777 -1.354,17.068 -0.027,17.068C1.466,17.068 2.642,16.751 3.5,16.114C4.358,15.479 4.929,14.613 5.208,13.521L8.316,13.521C7.942,15.385 7.033,16.84 5.586,17.889C4.14,18.937 2.277,19.461 0,19.461" style="fill:rgb(41,132,159);fill-rule:nonzero;"/>
        </g>
        <g transform="matrix(1,0,0,1,0,41.194)">
            <path d="M209.432,20.833L212.232,20.833L212.232,39.649L209.432,39.649L209.432,20.833ZM199.296,28.952L210.048,28.952L210.048,31.156L199.296,31.156L199.296,28.952ZM196.972,20.833L199.772,20.833L199.772,39.649L196.972,39.649L196.972,20.833Z" style="fill:rgb(41,132,159);fill-rule:nonzero;"/>
        </g>
        <g transform="matrix(1,0,0,1,227.688,71.785)">
            <path d="M0,-0.699L3.781,-0.699C5.236,-0.699 6.281,-1.012 6.916,-1.639C7.551,-2.266 7.869,-3.1 7.869,-4.14C7.869,-5.215 7.551,-6.048 6.916,-6.639C6.281,-7.231 5.236,-7.527 3.781,-7.527L0,-7.527L0,-0.699ZM-2.799,9.059L-2.799,-9.758L3.893,-9.758C5.441,-9.758 6.725,-9.507 7.742,-9.005C8.76,-8.503 9.512,-7.831 9.996,-6.989C10.482,-6.147 10.725,-5.188 10.725,-4.113C10.725,-3.092 10.486,-2.155 10.01,-1.303C9.535,-0.452 8.793,0.233 7.785,0.752C6.777,1.273 5.479,1.532 3.893,1.532L0,1.532L0,9.059L-2.799,9.059Z" style="fill:rgb(41,132,159);fill-rule:nonzero;"/>
        </g>
        <g transform="matrix(1,0,0,1,241.801,66.6775)">
            <path d="M0,9.516L0.783,7.366L9.996,7.366L10.779,9.516L0,9.516ZM-3.248,14.166L3.947,-4.65L7,-4.65L14.195,14.166L11.199,14.166L5.459,-1.424L-0.309,14.166L-3.248,14.166Z" style="fill:rgb(41,132,159);fill-rule:nonzero;"/>
        </g>
        <g transform="matrix(1,0,0,1,261.932,62.0279)">
            <path d="M0,18.816L0,2.204L-5.797,2.204L-5.797,0L8.623,0L8.623,2.204L2.799,2.204L2.799,18.816L0,18.816Z" style="fill:rgb(41,132,159);fill-rule:nonzero;"/>
        </g>
        <g transform="matrix(1,0,0,1,0,41.194)">
            <path d="M286.516,20.833L289.315,20.833L289.315,39.649L286.516,39.649L286.516,20.833ZM276.379,28.952L287.131,28.952L287.131,31.156L276.379,31.156L276.379,28.952ZM274.055,20.833L276.856,20.833L276.856,39.649L274.055,39.649L274.055,20.833Z" style="fill:rgb(41,132,159);fill-rule:nonzero;"/>
        </g>
        <g transform="matrix(1,0,0,1,302.924,64.0975)">
            <path d="M0,14.676C1.361,14.676 2.547,14.381 3.555,13.789C4.562,13.197 5.342,12.356 5.893,11.263C6.443,10.17 6.719,8.862 6.719,7.338C6.719,5.815 6.443,4.507 5.893,3.413C5.342,2.321 4.562,1.483 3.555,0.9C2.547,0.318 1.361,0.027 0,0.027C-1.326,0.027 -2.488,0.318 -3.486,0.9C-4.486,1.483 -5.266,2.321 -5.824,3.413C-6.385,4.507 -6.664,5.815 -6.664,7.338C-6.664,8.862 -6.385,10.17 -5.824,11.263C-5.266,12.356 -4.486,13.197 -3.486,13.789C-2.488,14.381 -1.326,14.676 0,14.676M0,17.069C-1.887,17.069 -3.539,16.661 -4.957,15.846C-6.375,15.03 -7.49,13.893 -8.303,12.432C-9.115,10.972 -9.521,9.274 -9.521,7.338C-9.521,5.421 -9.115,3.732 -8.303,2.271C-7.49,0.811 -6.375,-0.332 -4.957,-1.156C-3.539,-1.98 -1.887,-2.393 0,-2.393C1.902,-2.393 3.578,-1.98 5.025,-1.156C6.471,-0.332 7.592,0.811 8.385,2.271C9.178,3.732 9.576,5.421 9.576,7.338C9.576,9.274 9.178,10.972 8.385,12.432C7.592,13.893 6.471,15.03 5.025,15.846C3.578,16.661 1.902,17.069 0,17.069" style="fill:rgb(41,132,159);fill-rule:nonzero;"/>
        </g>
        <g transform="matrix(1,0,0,1,316.559,62.0279)">
            <path d="M0,18.816L0,0L2.801,0L2.801,16.692L11.76,16.692L11.76,18.816L0,18.816Z" style="fill:rgb(41,132,159);fill-rule:nonzero;"/>
        </g>
        <g transform="matrix(1,0,0,1,339.322,64.0975)">
            <path d="M0,14.676C1.363,14.676 2.549,14.381 3.557,13.789C4.564,13.197 5.344,12.356 5.895,11.263C6.445,10.17 6.721,8.862 6.721,7.338C6.721,5.815 6.445,4.507 5.895,3.413C5.344,2.321 4.564,1.483 3.557,0.9C2.549,0.318 1.363,0.027 0,0.027C-1.326,0.027 -2.488,0.318 -3.486,0.9C-4.484,1.483 -5.264,2.321 -5.824,3.413C-6.383,4.507 -6.664,5.815 -6.664,7.338C-6.664,8.862 -6.383,10.17 -5.824,11.263C-5.264,12.356 -4.484,13.197 -3.486,13.789C-2.488,14.381 -1.326,14.676 0,14.676M0,17.069C-1.885,17.069 -3.537,16.661 -4.955,15.846C-6.375,15.03 -7.49,13.893 -8.303,12.432C-9.113,10.972 -9.52,9.274 -9.52,7.338C-9.52,5.421 -9.113,3.732 -8.303,2.271C-7.49,0.811 -6.375,-0.332 -4.955,-1.156C-3.537,-1.98 -1.885,-2.393 0,-2.393C1.904,-2.393 3.58,-1.98 5.025,-1.156C6.473,-0.332 7.592,0.811 8.387,2.271C9.18,3.732 9.576,5.421 9.576,7.338C9.576,9.274 9.18,10.972 8.387,12.432C7.592,13.893 6.473,15.03 5.025,15.846C3.58,16.661 1.904,17.069 0,17.069" style="fill:rgb(41,132,159);fill-rule:nonzero;"/>
        </g>
        <g transform="matrix(1,0,0,1,361.443,61.7051)">
            <path d="M0,19.461C-1.85,19.461 -3.463,19.058 -4.846,18.251C-6.227,17.445 -7.295,16.316 -8.051,14.864C-8.807,13.413 -9.186,11.72 -9.186,9.784C-9.186,7.867 -8.797,6.173 -8.023,4.704C-7.248,3.234 -6.143,2.083 -4.705,1.25C-3.268,0.417 -1.561,0 0.42,0C2.66,0 4.525,0.515 6.02,1.545C7.512,2.576 8.473,4.005 8.902,5.833L5.684,5.833C5.402,4.794 4.814,3.974 3.92,3.373C3.023,2.773 1.848,2.473 0.391,2.473C-0.99,2.473 -2.186,2.768 -3.193,3.36C-4.201,3.951 -4.977,4.794 -5.518,5.886C-6.059,6.98 -6.328,8.279 -6.328,9.784C-6.328,11.308 -6.062,12.616 -5.531,13.709C-4.998,14.802 -4.238,15.635 -3.248,16.209C-2.26,16.782 -1.121,17.068 0.168,17.068C2.146,17.068 3.639,16.523 4.646,15.429C5.654,14.336 6.234,12.875 6.383,11.048L0.979,11.048L0.979,8.978L9.238,8.978L9.238,19.139L6.664,19.139L6.439,16.263C5.973,16.961 5.445,17.548 4.857,18.023C4.27,18.498 3.584,18.857 2.799,19.098C2.016,19.34 1.082,19.461 0,19.461" style="fill:rgb(41,132,159);fill-rule:nonzero;"/>
        </g>
        <g transform="matrix(1,0,0,1,378.83,62.0279)">
            <path d="M0,18.816L0,11.827L-6.439,0L-3.275,0L1.793,9.919L1.064,9.919L6.104,0L9.24,0L2.801,11.827L2.801,18.816L0,18.816Z" style="fill:rgb(41,132,159);fill-rule:nonzero;"/>
        </g>
    </g>
</svg>
